<svg width="140" height="182" viewBox="0 0 140 182" fill="none" xmlns="http://www.w3.org/2000/svg">
<path d="M34.4167 8.9244e-07C23.1408 3.99559e-07 14 9.14085 14 20.4167L14 127.978C14 134.519 19.3026 139.821 25.8437 139.821C32.4004 139.821 37.7094 134.494 37.6873 127.938L37.3728 34.9999C37.351 28.5631 42.5631 23.3333 49 23.3333L68.8333 23.3333L88.6667 23.3333C95.0969 23.3333 100.297 28.5696 100.253 34.9997L99.6149 127.419C99.5677 134.255 105.096 139.821 111.932 139.821C118.735 139.821 124.25 134.306 124.25 127.504L124.25 20.4167C124.25 9.14086 115.109 4.41962e-06 103.833 3.92674e-06L67.0833 2.32035e-06L34.4167 8.9244e-07Z" fill="#D9D9D9"/>
<rect y="56" width="140" height="126" rx="11.6667" fill="#FFD98F"/>
<path d="M60.6667 117.833C60.6667 114.612 63.2784 112 66.5 112H73.5C76.7217 112 79.3334 114.612 79.3334 117.833V143.5C79.3334 146.722 76.7217 149.333 73.5 149.333H66.5C63.2784 149.333 60.6667 146.722 60.6667 143.5V117.833Z" fill="#605E5C"/>
<circle cx="70" cy="107.333" r="18.6667" fill="#605E5C"/>
</svg>
