<svg width="279" height="250" viewBox="0 0 279 250" fill="none" xmlns="http://www.w3.org/2000/svg">
<circle cx="146" cy="125" r="125" fill="#E1F2FF"/>
<rect x="5" y="103" width="136" height="94" rx="20" fill="#323130"/>
<path d="M12 107C12 95.9543 20.9543 87 32 87H114C125.046 87 134 95.9543 134 107V143C134 154.046 125.046 163 114 163H32C20.9543 163 12 154.046 12 143V107Z" fill="#323130"/>
<rect x="22.0001" y="108" width="102" height="90" rx="30" fill="#FFCCCC"/>
<rect opacity="0.35" x="73.0001" y="165" width="8" height="10" rx="4" fill="#A34053"/>
<rect x="85.5693" y="152" width="28" height="30" rx="14" fill="#FCFCFC"/>
<rect x="85.5693" y="148" width="28" height="24" rx="7" fill="#FCFCFC"/>
<mask id="mask0_1240_5585" style="mask-type:alpha" maskUnits="userSpaceOnUse" x="93" y="163" width="14" height="17">
<rect width="13" height="16.9548" rx="6.5" transform="matrix(-1 0 0 1 106.138 163)" fill="#323130"/>
</mask>
<g mask="url(#mask0_1240_5585)">
<path d="M112.953 158.032C113.584 152.693 109.412 148 104.036 148H95.9575C90.6339 148 86.4118 152.487 86.7357 157.801L87.2985 167.034C87.5572 171.278 92.673 173.266 95.7298 170.311L95.8691 170.176C97.9583 168.156 101.348 168.436 103.077 170.771C105.669 174.271 111.207 172.799 111.718 168.474L112.953 158.032Z" fill="#323130"/>
<rect x="101.336" y="166.715" width="4.80603" height="8.05569" rx="2.40301" fill="#323130"/>
<rect x="93.1406" y="166.75" width="4.73081" height="8.05569" rx="2.36541" fill="#323130"/>
<rect x="97.9146" y="167.458" width="3.49931" height="7.61646" rx="1.74966" fill="#FCFCFC"/>
</g>
<rect x="39.5693" y="152" width="28" height="30" rx="14" fill="#FCFCFC"/>
<rect x="39.5693" y="148" width="28" height="23" rx="7" fill="#FCFCFC"/>
<mask id="mask1_1240_5585" style="mask-type:alpha" maskUnits="userSpaceOnUse" x="47" y="163" width="14" height="17">
<rect width="13" height="16.9548" rx="6.5" transform="matrix(-1 0 0 1 60.1383 163)" fill="#323130"/>
</mask>
<g mask="url(#mask1_1240_5585)">
<path d="M66.9525 158.032C67.5836 152.693 63.4125 148 58.036 148H49.9575C44.6339 148 40.4118 152.487 40.7357 157.801L41.2985 167.034C41.5572 171.278 46.673 173.266 49.7298 170.311L49.8691 170.176C51.9583 168.156 55.3479 168.436 57.0772 170.771C59.6691 174.271 65.2072 172.799 65.7184 168.474L66.9525 158.032Z" fill="#323130"/>
<rect x="55.3359" y="166.715" width="4.80603" height="8.05569" rx="2.40301" fill="#323130"/>
<rect x="47.1406" y="166.75" width="4.73081" height="8.05569" rx="2.36541" fill="#323130"/>
<rect x="51.9146" y="167.458" width="3.49931" height="7.61646" rx="1.74966" fill="#FCFCFC"/>
</g>
<rect x="12" y="80" width="124" height="50" rx="20" fill="#323130"/>
<ellipse cx="20" cy="30" rx="20" ry="30" transform="matrix(-0.430493 0.902594 0.902594 0.430493 93.8617 102)" fill="#323130"/>
<ellipse cx="20.7456" cy="24.3578" rx="20.7456" ry="24.3578" transform="matrix(-0.422618 -0.906308 -0.906308 0.422618 60.6863 143.604)" fill="#323130"/>
<ellipse cx="20.7456" cy="24.3578" rx="20.7456" ry="24.3578" transform="matrix(-0.422618 -0.906308 -0.906308 0.422618 85.6863 138.604)" fill="#323130"/>
<ellipse cx="59.5441" cy="83.8434" rx="26" ry="8" transform="rotate(29.7383 59.5441 83.8434)" fill="#323130"/>
<ellipse cx="76.588" cy="78.8838" rx="34.5942" ry="10.8019" transform="rotate(151.763 76.588 78.8838)" fill="#323130"/>
<path d="M68 182C68 179.791 69.7909 178 72 178H76.5H81C83.2091 178 85 179.791 85 182V184C85 186.209 83.2091 188 81 188H76.5H72C69.7909 188 68 186.209 68 184V182Z" fill="#FCFCFC"/>
<rect width="122" height="118" rx="20" transform="matrix(-1 0 0 1 279 82)" fill="#323130"/>
<rect width="102" height="90" rx="30" transform="matrix(-1 0 0 1 269 110)" fill="#FFCCCC"/>
<path d="M224 183C224 180.791 222.209 179 220 179H214H208C205.791 179 204 180.791 204 183V185C204 187.209 205.791 189 208 189H214H220C222.209 189 224 187.209 224 185V183Z" fill="#FCFCFC"/>
<rect opacity="0.35" width="8" height="10" rx="4" transform="matrix(-1 0 0 1 218 167)" fill="#A34053"/>
<rect width="28" height="30" rx="14" transform="matrix(-1 0 0 1 205 154)" fill="#FCFCFC"/>
<rect width="28" height="24" rx="7" transform="matrix(-1 0 0 1 205 150)" fill="#FCFCFC"/>
<mask id="mask2_1240_5585" style="mask-type:alpha" maskUnits="userSpaceOnUse" x="184" y="165" width="13" height="17">
<rect x="184" y="165" width="13" height="16.9548" rx="6.5" fill="#323130"/>
</mask>
<g mask="url(#mask2_1240_5585)">
<path d="M177.186 160.032C176.555 154.693 180.726 150 186.102 150H194.181C199.504 150 203.726 154.487 203.403 159.801L202.84 169.034C202.581 173.278 197.465 175.266 194.409 172.311L194.269 172.176C192.18 170.156 188.79 170.436 187.061 172.771C184.469 176.271 178.931 174.799 178.42 170.474L177.186 160.032Z" fill="#323130"/>
<rect width="4.80603" height="8.05569" rx="2.40301" transform="matrix(-1 3.99275e-09 3.99275e-09 1 188.802 168.715)" fill="#323130"/>
<rect width="4.73081" height="8.05569" rx="2.36541" transform="matrix(-1 3.99275e-09 3.99275e-09 1 196.998 168.75)" fill="#323130"/>
<rect width="3.49931" height="7.61646" rx="1.74966" transform="matrix(-1 3.99275e-09 3.99275e-09 1 192.224 169.458)" fill="#FCFCFC"/>
</g>
<rect width="28" height="30" rx="14" transform="matrix(-1 0 0 1 251 154)" fill="#FCFCFC"/>
<rect width="28" height="23" rx="7" transform="matrix(-1 0 0 1 251 150)" fill="#FCFCFC"/>
<rect width="28" height="17" rx="7" transform="matrix(-1 0 0 1 251 150)" fill="#FCFCFC"/>
<mask id="mask3_1240_5585" style="mask-type:alpha" maskUnits="userSpaceOnUse" x="230" y="165" width="13" height="17">
<rect x="230" y="165" width="13" height="16.9548" rx="6.5" fill="#323130"/>
</mask>
<g mask="url(#mask3_1240_5585)">
<path d="M223.186 160.032C222.555 154.693 226.726 150 232.102 150H240.181C245.504 150 249.726 154.487 249.403 159.801L248.84 169.034C248.581 173.278 243.465 175.266 240.409 172.311L240.269 172.176C238.18 170.156 234.79 170.436 233.061 172.771C230.469 176.271 224.931 174.799 224.42 170.474L223.186 160.032Z" fill="#323130"/>
<rect width="4.80603" height="8.05569" rx="2.40301" transform="matrix(-1 3.99275e-09 3.99275e-09 1 234.802 168.715)" fill="#323130"/>
<rect width="4.73081" height="8.05569" rx="2.36541" transform="matrix(-1 3.99275e-09 3.99275e-09 1 242.998 168.75)" fill="#323130"/>
<rect width="3.49931" height="7.61646" rx="1.74966" transform="matrix(-1 3.99275e-09 3.99275e-09 1 238.224 169.458)" fill="#FCFCFC"/>
</g>
<ellipse cx="10.5" cy="20" rx="10.5" ry="20" transform="matrix(-1 0 0 1 279 120)" fill="#323130"/>
<ellipse cx="15" cy="20" rx="15" ry="20" transform="matrix(-1 0 0 1 216 112)" fill="#323130"/>
<rect width="122" height="60" rx="20" transform="matrix(-1 0 0 1 279 82)" fill="#323130"/>
<circle cx="20" cy="20" r="20" transform="matrix(-1 0 0 1 197 121)" fill="#323130"/>
<ellipse cx="30" cy="27" rx="30" ry="27" transform="matrix(-1 0 0 1 222 86)" fill="#323130"/>
<ellipse cx="26" cy="8" rx="26" ry="8" transform="matrix(-0.8683 0.496039 0.496039 0.8683 254.063 64)" fill="#323130"/>
<ellipse cx="34.5942" cy="10.8019" rx="34.5942" ry="10.8019" transform="matrix(0.880997 0.473122 0.473122 -0.880997 182.824 72.033)" fill="#323130"/>
<path d="M257.534 159.418C260.931 162.268 261.489 158.385 264.329 155C267.169 151.615 271.216 150.011 267.819 147.161C264.422 144.311 259.366 144.744 256.526 148.128C253.686 151.513 254.137 156.567 257.534 159.418Z" fill="#9751AF"/>
<path d="M239.565 144.034C236.168 141.184 240.16 139.895 243 136.511C245.84 133.126 246.452 128.927 249.849 131.777C253.246 134.628 253.698 139.682 250.858 143.067C248.018 146.451 242.962 146.885 239.565 144.034Z" fill="#9751AF"/>
<circle cx="6" cy="6" r="6" transform="matrix(-1 0 0 1 260 139)" fill="#521C7C"/>
</svg>
